<svg id="Layer_1" data-name="Layer 1" xmlns="http://www.w3.org/2000/svg" viewBox="0 0 604.57 394.16"><defs><style>.cls-1{fill:#fff;}</style></defs><text x="-349.85" y="-136.75"/><path d="M738.82,502.09l69.09-103.76a2.24,2.24,0,0,0,0-2.48l-69-103.7a2.24,2.24,0,0,1,1.86-3.48H952.18a2.24,2.24,0,0,1,2.24,2.24V503.34a2.24,2.24,0,0,1-2.24,2.24H740.68A2.24,2.24,0,0,1,738.82,502.09Z" transform="translate(-349.85 -136.75)"/><path d="M665.7,505.46V362.38h-7.1q-101.18,0-202.34.11c-5.06,0-6.45-1.23-6.38-6.34.31-21,.24-42,0-63,0-4,1.29-5.05,5.1-5.05,69.45.09,138.89,0,208.34.2a8.32,8.32,0,0,1,5.9,3.21c22.84,34,45.46,68.05,68.25,102,1.79,2.68,1.69,4.57,0,7.14q-34,50.88-67.93,101.83a41.69,41.69,0,0,1-2.68,3.28Z" transform="translate(-349.85 -136.75)"/><path d="M594,505.74H451.93a1.79,1.79,0,0,1-1.77-1.5,6.82,6.82,0,0,1-.12-1.16c0-22.32,0-44.64-.1-67,0-3.63,1.3-4.44,4.65-4.43q68.4.12,136.82,0c2.48,0,4.55-.1,4.53,3.5-.13,23-.1,46-.14,68.95a.57.57,0,0,1,0,.13A1.74,1.74,0,0,1,594,505.74Z" transform="translate(-349.85 -136.75)"/><path class="cls-1" d="M101.38,29.92" transform="translate(-349.85 -136.75)"/><path class="cls-1" d="M594.35,334.59" transform="translate(-349.85 -136.75)"/></svg>